<?xml version="1.0" encoding="utf-8"?>
<!-- Generator: Adobe Illustrator 26.1.0, SVG Export Plug-In . SVG Version: 6.00 Build 0)  -->
<svg version="1.1" id="Layer_1" xmlns="http://www.w3.org/2000/svg" xmlns:xlink="http://www.w3.org/1999/xlink" x="0px" y="0px"
	 viewBox="0 0 18 18" style="enable-background:new 0 0 18 18;" xml:space="preserve">
<style type="text/css">
	.st0{fill:#12344B;}
</style>
<path class="st0" d="M0.78,6.15h3.53v11.33H0.78V6.15z M2.54,0.52c1.13,0,2.04,0.92,2.04,2.04c0,1.13-0.91,2.04-2.04,2.04
	C1.41,4.6,0.5,3.69,0.5,2.56C0.5,1.43,1.41,0.52,2.54,0.52 M6.52,17.48h3.52v-5.61c0-1.48,0.28-2.91,2.11-2.91
	c1.81,0,1.83,1.69,1.83,3.01v5.51h3.52v-6.22c0-3.05-0.66-5.4-4.22-5.4c-1.71,0-2.86,0.94-3.33,1.83H9.89V6.15H6.52V17.48z"/>
</svg>
