<?xml version="1.0" encoding="utf-8"?>
<!-- Generator: Adobe Illustrator 26.1.0, SVG Export Plug-In . SVG Version: 6.00 Build 0)  -->
<svg version="1.1" id="Layer_1" xmlns="http://www.w3.org/2000/svg" xmlns:xlink="http://www.w3.org/1999/xlink" x="0px" y="0px"
	 viewBox="0 0 18 18" style="enable-background:new 0 0 18 18;" xml:space="preserve">
<style type="text/css">
	.st0{fill:#12344B;}
</style>
<g id="XMLID_1684_">
	<path id="XMLID_1689_" class="st0" d="M9,1.85c2.33,0,2.6,0.01,3.52,0.05c0.85,0.04,1.31,0.18,1.62,0.3c0.41,0.16,0.7,0.35,1,0.65
		c0.31,0.31,0.49,0.6,0.65,1c0.12,0.31,0.26,0.77,0.3,1.62c0.04,0.92,0.05,1.2,0.05,3.52s-0.01,2.6-0.05,3.52
		c-0.04,0.85-0.18,1.31-0.3,1.62c-0.16,0.41-0.35,0.7-0.65,1c-0.31,0.31-0.6,0.49-1,0.65c-0.31,0.12-0.77,0.26-1.62,0.3
		c-0.92,0.04-1.19,0.05-3.52,0.05c-2.33,0-2.6-0.01-3.52-0.05c-0.85-0.04-1.31-0.18-1.62-0.3c-0.41-0.16-0.7-0.35-1-0.65
		c-0.31-0.31-0.49-0.6-0.65-1c-0.12-0.31-0.26-0.77-0.3-1.62C1.86,11.6,1.85,11.33,1.85,9S1.86,6.4,1.9,5.48
		c0.04-0.85,0.18-1.31,0.3-1.62c0.16-0.41,0.35-0.7,0.65-1c0.31-0.31,0.6-0.49,1-0.65c0.31-0.12,0.77-0.26,1.62-0.3
		C6.4,1.86,6.67,1.85,9,1.85 M9,0.28c-2.37,0-2.66,0.01-3.59,0.05C4.48,0.38,3.84,0.52,3.29,0.74C2.71,0.96,2.23,1.26,1.74,1.74
		S0.96,2.72,0.74,3.29C0.52,3.84,0.38,4.48,0.33,5.41C0.29,6.34,0.28,6.63,0.28,9c0,2.37,0.01,2.66,0.05,3.59
		c0.04,0.93,0.19,1.56,0.41,2.12c0.22,0.57,0.52,1.06,1.01,1.54s0.97,0.78,1.54,1.01c0.55,0.22,1.19,0.36,2.12,0.41
		c0.93,0.04,1.23,0.05,3.59,0.05c2.37,0,2.66-0.01,3.6-0.05c0.93-0.04,1.56-0.19,2.12-0.41c0.57-0.22,1.06-0.52,1.54-1.01
		s0.78-0.97,1.01-1.54c0.22-0.55,0.36-1.19,0.41-2.12c0.04-0.93,0.05-1.23,0.05-3.59c0-2.37-0.01-2.66-0.05-3.6
		c-0.04-0.93-0.19-1.56-0.41-2.12c-0.22-0.57-0.52-1.06-1.01-1.54s-0.97-0.78-1.54-1.01c-0.55-0.22-1.19-0.36-2.12-0.41
		C11.66,0.29,11.37,0.28,9,0.28"/>
	<path id="XMLID_1686_" class="st0" d="M9,4.52c-2.47,0-4.48,2-4.48,4.48c0,2.47,2,4.48,4.48,4.48c2.47,0,4.48-2,4.48-4.48
		C13.48,6.53,11.47,4.52,9,4.52 M9,11.91c-1.61,0-2.91-1.3-2.91-2.91c0-1.61,1.3-2.91,2.91-2.91s2.91,1.3,2.91,2.91
		C11.91,10.61,10.61,11.91,9,11.91"/>
	<path id="XMLID_1685_" class="st0" d="M14.7,4.35c0,0.58-0.47,1.05-1.05,1.05c-0.58,0-1.05-0.47-1.05-1.05
		c0-0.58,0.47-1.05,1.05-1.05C14.23,3.3,14.7,3.77,14.7,4.35"/>
</g>
</svg>
