<?xml version="1.0" encoding="utf-8"?>
<!-- Generator: Adobe Illustrator 26.1.0, SVG Export Plug-In . SVG Version: 6.00 Build 0)  -->
<svg version="1.1" id="Layer_1" xmlns="http://www.w3.org/2000/svg" xmlns:xlink="http://www.w3.org/1999/xlink" x="0px" y="0px"
	 viewBox="0 0 18 18" style="enable-background:new 0 0 18 18;" xml:space="preserve">
<style type="text/css">
	.st0{fill:#12344B;}
</style>
<path class="st0" d="M17.58,2.2c-0.06-0.18-0.14-0.23-0.25-0.27c-0.25-0.1-0.68,0.05-0.68,0.05S1.55,7.4,0.69,8
	c-0.19,0.13-0.25,0.2-0.28,0.29C0.26,8.72,0.73,8.91,0.73,8.91l3.89,1.27c0,0,0.15,0.02,0.2-0.01c0.89-0.56,8.91-5.63,9.37-5.8
	c0.07-0.02,0.13,0,0.11,0.05c-0.19,0.65-7.15,6.84-7.15,6.84S7.12,11.3,7.1,11.34l-0.01-0.01L6.73,15.2c0,0-0.15,1.18,1.03,0
	c0.83-0.83,1.64-1.53,2.05-1.87c1.34,0.92,2.78,1.95,3.4,2.48c0.31,0.27,0.57,0.31,0.79,0.3c0.59-0.02,0.75-0.67,0.75-0.67
	S17.5,4.36,17.59,2.88c0.01-0.15,0.02-0.24,0.02-0.34C17.62,2.4,17.61,2.26,17.58,2.2z"/>
</svg>
