<?xml version="1.0" encoding="utf-8"?>
<!-- Generator: Adobe Illustrator 26.1.0, SVG Export Plug-In . SVG Version: 6.00 Build 0)  -->
<svg version="1.1" id="Layer_1" xmlns="http://www.w3.org/2000/svg" xmlns:xlink="http://www.w3.org/1999/xlink" x="0px" y="0px"
	 viewBox="0 0 595.28 841.89" style="enable-background:new 0 0 595.28 841.89;" xml:space="preserve">
<style type="text/css">
	.st0{fill:#12344B;}
	.st1{fill-rule:evenodd;clip-rule:evenodd;fill:#12344B;}
	.st2{fill:#FFFFFF;}
</style>
<path id="XMLID_1694_" class="st0" d="M294.15,323.75h3.51v-8.79h2.45l0.26-2.94h-2.71c0,0,0-1.1,0-1.68c0-0.69,0.14-0.97,0.81-0.97
	c0.54,0,1.9,0,1.9,0v-3.05c0,0-2,0-2.43,0c-2.61,0-3.79,1.15-3.79,3.35c0,1.92,0,2.35,0,2.35h-1.83V315h1.83V323.75z"/>
<g id="XMLID_1684_">
	<path id="XMLID_1689_" class="st0" d="M324.42,307.77c2.33,0,2.6,0.01,3.52,0.05c0.85,0.04,1.31,0.18,1.62,0.3
		c0.41,0.16,0.7,0.35,1,0.65c0.31,0.31,0.49,0.6,0.65,1c0.12,0.31,0.26,0.77,0.3,1.62c0.04,0.92,0.05,1.2,0.05,3.52
		s-0.01,2.6-0.05,3.52c-0.04,0.85-0.18,1.31-0.3,1.62c-0.16,0.41-0.35,0.7-0.65,1c-0.31,0.3-0.6,0.49-1,0.65
		c-0.31,0.12-0.77,0.26-1.62,0.3c-0.92,0.04-1.19,0.05-3.52,0.05c-2.33,0-2.6-0.01-3.52-0.05c-0.85-0.04-1.31-0.18-1.62-0.3
		c-0.41-0.16-0.7-0.35-1-0.65c-0.31-0.31-0.49-0.6-0.65-1c-0.12-0.31-0.26-0.77-0.3-1.62c-0.04-0.92-0.05-1.2-0.05-3.52
		s0.01-2.6,0.05-3.52c0.04-0.85,0.18-1.31,0.3-1.62c0.16-0.41,0.35-0.7,0.65-1c0.31-0.31,0.6-0.49,1-0.65
		c0.31-0.12,0.77-0.26,1.62-0.3C321.82,307.78,322.09,307.77,324.42,307.77 M324.42,306.2c-2.37,0-2.66,0.01-3.6,0.05
		c-0.93,0.04-1.56,0.19-2.12,0.41c-0.57,0.22-1.06,0.52-1.54,1.01c-0.48,0.48-0.78,0.97-1.01,1.54c-0.22,0.55-0.36,1.19-0.41,2.12
		c-0.04,0.93-0.05,1.23-0.05,3.6c0,2.37,0.01,2.66,0.05,3.6c0.04,0.93,0.19,1.56,0.41,2.12c0.22,0.57,0.52,1.06,1.01,1.54
		c0.48,0.48,0.97,0.78,1.54,1.01c0.55,0.22,1.19,0.36,2.12,0.41c0.93,0.04,1.23,0.05,3.6,0.05c2.37,0,2.66-0.01,3.6-0.05
		c0.93-0.04,1.56-0.19,2.12-0.41c0.57-0.22,1.06-0.52,1.54-1.01c0.48-0.48,0.78-0.97,1.01-1.54c0.22-0.55,0.36-1.19,0.41-2.12
		c0.04-0.93,0.05-1.23,0.05-3.6c0-2.37-0.01-2.66-0.05-3.6c-0.04-0.93-0.19-1.56-0.41-2.12c-0.22-0.57-0.52-1.06-1.01-1.54
		c-0.48-0.48-0.97-0.78-1.54-1.01c-0.55-0.22-1.19-0.36-2.12-0.41C327.08,306.21,326.79,306.2,324.42,306.2"/>
	<path id="XMLID_1686_" class="st0" d="M324.42,310.44c-2.47,0-4.48,2-4.48,4.48c0,2.47,2,4.48,4.48,4.48c2.47,0,4.48-2,4.48-4.48
		C328.9,312.45,326.89,310.44,324.42,310.44 M324.42,317.83c-1.61,0-2.91-1.3-2.91-2.91c0-1.61,1.3-2.91,2.91-2.91
		s2.91,1.3,2.91,2.91C327.33,316.53,326.02,317.83,324.42,317.83"/>
	<path id="XMLID_1685_" class="st0" d="M330.12,310.27c0,0.58-0.47,1.05-1.05,1.05c-0.58,0-1.05-0.47-1.05-1.05
		c0-0.58,0.47-1.05,1.05-1.05C329.65,309.22,330.12,309.69,330.12,310.27"/>
</g>
<path class="st0" d="M369.29,311.92h3.69v11.87h-3.69V311.92z M371.14,306.02c1.18,0,2.14,0.96,2.14,2.14
	c0,1.18-0.96,2.14-2.14,2.14c-1.19,0-2.14-0.96-2.14-2.14C369,306.98,369.95,306.02,371.14,306.02 M375.3,323.79h3.69v-5.87
	c0-1.55,0.29-3.05,2.21-3.05c1.89,0,1.92,1.77,1.92,3.15v5.77h3.69v-6.51c0-3.2-0.69-5.66-4.42-5.66c-1.8,0-3,0.98-3.49,1.92h-0.05
	v-1.62h-3.54V323.79z"/>
<g>
	<path class="st1" d="M350.4,317.08c-0.22,0.01-0.45,0-0.67,0c-0.24,0-0.26,0.03-0.26,0.26c0,1.06,0,2.11,0,3.17
		c0,0.11,0,0.21,0,0.32c0,0.15-0.26,0.4-0.42,0.39c-0.22-0.02-0.13-0.21-0.14-0.33c-0.02-0.12,0-0.25,0-0.37c0-1.07,0-2.13,0-3.2
		c0-0.17-0.06-0.23-0.23-0.23c-0.22,0.01-0.44,0-0.65,0c-0.24,0-0.26,0.02-0.26,0.26c0,1.32,0,2.63,0,3.95c0,0.08,0,0.15,0.01,0.23
		c0.06,0.73,0.58,1.03,1.24,0.71c0.15-0.08,0.29-0.18,0.45-0.28c0.01,0.04,0.01,0.06,0.01,0.09c0.01,0.23,0.02,0.25,0.26,0.25
		c0.23,0,0.46,0,0.69,0c0.14,0,0.2-0.06,0.2-0.2c0-1.6,0-3.2,0-4.79C350.62,317.13,350.55,317.08,350.4,317.08z M347.99,316.34
		c0-0.28,0-0.55,0-0.83c0-0.14-0.06-0.19-0.19-0.19c-1.01,0-2.02,0-3.03,0c-0.14,0-0.21,0.06-0.2,0.2c0,0.25,0,0.51,0,0.76
		c0,0.21,0.02,0.24,0.23,0.24c0.28,0,0.55,0,0.85,0c0,0.1,0,0.18,0,0.26c0,1.74,0,3.48,0,5.22c0,0.27,0.01,0.28,0.28,0.28
		c0.24,0,0.47,0,0.71,0c0.26,0,0.28-0.02,0.28-0.28c0-1.76,0-3.51,0-5.27c0-0.07,0-0.14,0-0.22c0.31,0,0.6,0,0.89,0
		C347.93,316.52,347.99,316.47,347.99,316.34z M351.19,312.01c0.28,0.03,0.46-0.15,0.47-0.48c0.01-0.42,0-0.85,0-1.27
		c0-0.44,0-0.87,0-1.31c0-0.23-0.09-0.36-0.26-0.41c-0.31-0.1-0.54,0.08-0.54,0.42c0,0.85,0,1.71,0,2.56c0,0.07,0.01,0.14,0.03,0.21
		C350.91,311.9,351.02,311.99,351.19,312.01z M354.08,317.72c-0.22-0.68-0.91-0.91-1.5-0.49c-0.03,0.02-0.07,0.04-0.13,0.07
		c0-0.61,0-1.18,0-1.76c0-0.17-0.06-0.23-0.23-0.23c-0.22,0.01-0.45,0-0.67,0c-0.23,0-0.25,0.02-0.25,0.25c0,1.06,0,2.12,0,3.18
		c0,1.1,0,2.19,0,3.29c0,0.22,0.02,0.24,0.24,0.24c0.23,0,0.46,0,0.69,0c0.13,0,0.22-0.03,0.22-0.21c0.07,0.05,0.11,0.08,0.16,0.1
		c0.44,0.26,1.01,0.2,1.3-0.14c0.2-0.24,0.26-0.54,0.26-0.84c0-0.95,0.01-1.91,0-2.87C354.17,318.12,354.14,317.91,354.08,317.72z
		 M353,321.02c0,0.24-0.06,0.31-0.22,0.31c-0.2,0-0.33-0.13-0.33-0.33c0-0.44,0-0.88,0-1.33c0-0.45,0-0.91,0-1.36
		c0-0.16,0.09-0.26,0.25-0.28c0.16-0.02,0.24,0.07,0.28,0.21c0.01,0.05,0.02,0.1,0.02,0.16C353,319.28,353,320.15,353,321.02z
		 M356.02,319.91c0.45,0,0.9,0,1.34,0c0.16,0,0.23-0.05,0.23-0.21c-0.01-0.49,0-0.98-0.03-1.47c-0.03-0.44-0.2-0.84-0.6-1.06
		c-0.9-0.52-2.25-0.07-2.3,1.25c-0.03,0.86-0.01,1.72,0,2.58c0.01,0.39,0.15,0.74,0.43,1.02c0.41,0.4,0.9,0.44,1.43,0.34
		c0.48-0.09,0.82-0.38,0.94-0.85c0.09-0.35,0.09-0.72,0.12-1.08c0.01-0.12-0.09-0.15-0.19-0.15c-0.26,0-0.52,0-0.78,0
		c-0.14,0-0.2,0.06-0.2,0.2c0,0.2-0.01,0.4-0.03,0.6c-0.02,0.19-0.19,0.29-0.37,0.22c-0.14-0.05-0.17-0.18-0.17-0.3
		c-0.01-0.35,0-0.71,0-1.09C355.9,319.91,355.96,319.91,356.02,319.91z M355.82,318.91c0.01-0.22,0.01-0.43,0.03-0.64
		c0.02-0.14,0.12-0.21,0.26-0.21c0.14,0,0.25,0.05,0.27,0.2c0.03,0.21,0.03,0.43,0.05,0.65
		C356.22,318.91,356.04,318.91,355.82,318.91z M353.39,307.79c0.24,0,0.47,0,0.7,0c0.06,0,0.11,0,0.2,0c0,0.1,0,0.17,0,0.25
		c0,1.12,0,2.24,0,3.36c0,0.06-0.01,0.12,0,0.18c0.03,0.11,0.06,0.28,0.13,0.31c0.09,0.04,0.25,0,0.36-0.06
		c0.21-0.11,0.32-0.28,0.31-0.55c-0.02-1.08-0.01-2.17-0.01-3.26c0-0.07,0-0.14,0-0.22c0.31,0,0.6,0,0.9,0c0,1.65,0,3.29,0,4.94
		c-0.3,0-0.59,0-0.9,0c0-0.16,0-0.32,0-0.54c-0.09,0.09-0.15,0.14-0.2,0.2c-0.22,0.21-0.46,0.37-0.76,0.42
		c-0.34,0.06-0.61-0.11-0.7-0.44c-0.04-0.15-0.05-0.3-0.05-0.46c0-1.32,0-2.63,0-3.95C353.38,307.91,353.39,307.87,353.39,307.79z
		 M350.81,307.73c0.58-0.14,1.1-0.07,1.51,0.42c0.16,0.19,0.25,0.42,0.25,0.67c0,0.96,0.01,1.92,0,2.89
		c-0.01,0.66-0.51,1.13-1.17,1.17c-0.49,0.03-0.92-0.08-1.23-0.5c-0.15-0.2-0.23-0.44-0.24-0.69c-0.01-0.48,0-0.97,0-1.45
		c0,0,0,0,0,0c0-0.47-0.01-0.94,0-1.42C349.94,308.27,350.29,307.86,350.81,307.73z M347.46,306.03c0.03,0,0.07,0.09,0.09,0.15
		c0.2,0.79,0.4,1.58,0.6,2.36c0.02,0.06,0.03,0.11,0.05,0.16c0.02,0,0.04,0,0.06,0c0.04-0.15,0.08-0.3,0.12-0.45
		c0.17-0.69,0.33-1.39,0.49-2.08c0.03-0.12,0.07-0.17,0.2-0.16c0.28,0.01,0.56,0,0.87,0c-0.02,0.09-0.03,0.16-0.05,0.23
		c-0.36,1.17-0.72,2.34-1.08,3.51c-0.04,0.12-0.05,0.24-0.05,0.36c-0.01,0.8,0,1.59,0,2.39c0,0.07,0,0.14,0,0.22
		c-0.35,0-0.67,0-1.03,0c0-0.07-0.01-0.13-0.01-0.2c0-0.76,0-1.51,0-2.27c0-0.13-0.02-0.27-0.06-0.4c-0.37-1.22-0.74-2.43-1.11-3.65
		c-0.02-0.06-0.03-0.11-0.05-0.2C346.82,306.02,347.14,306.02,347.46,306.03z M358.69,320.58c-0.03,0.57-0.03,1.15-0.15,1.71
		c-0.19,0.93-1.06,1.58-2.01,1.62c-2.94,0.12-5.89,0.13-8.83,0.06c-0.7-0.02-1.39-0.04-2.09-0.07c-1.02-0.04-1.93-0.94-2-1.96
		c-0.1-1.4-0.14-2.8-0.09-4.21c0.02-0.7,0.04-1.39,0.13-2.08c0.12-0.94,0.97-1.72,1.92-1.76c1.41-0.06,2.83-0.08,4.25-0.11
		c0.43-0.01,0.86,0,1.29,0c0-0.01,0-0.02,0-0.03c1.75,0.04,3.49,0.07,5.24,0.11c0.95,0.02,1.66,0.43,2.08,1.3
		c0.2,0.4,0.18,0.85,0.21,1.28C358.75,317.82,358.76,319.2,358.69,320.58z"/>
</g>
<path class="st2" d="M283.47,288.05c-10.94,0-17.18-7.5-17.44-19.98h5.48c0.18,9.16,4.22,13.04,7.42,13.84v-13.84h5.16v7.9
	c3.16-0.34,6.48-3.94,7.6-7.9h5.16c-0.86,4.88-4.46,8.48-7.02,9.96c2.56,1.2,6.66,4.34,8.22,10.02h-5.68
	c-1.22-3.8-4.26-6.74-8.28-7.14v7.14H283.47z"/>
<path class="st0" d="M266.51,322.06c-7.87,0-12.36-5.4-12.55-14.38h3.94c0.13,6.59,3.04,9.38,5.34,9.96v-9.96h3.71v5.68
	c2.27-0.24,4.66-2.84,5.47-5.68h3.71c-0.62,3.51-3.21,6.1-5.05,7.17c1.84,0.86,4.79,3.12,5.92,7.21h-4.09
	c-0.88-2.73-3.07-4.85-5.96-5.14v5.14H266.51z"/>
<path class="st0" d="M413.4,308.15c-0.06-0.18-0.14-0.23-0.25-0.27c-0.25-0.1-0.68,0.05-0.68,0.05s-15.1,5.43-15.96,6.03
	c-0.19,0.13-0.25,0.2-0.28,0.29c-0.15,0.43,0.32,0.62,0.32,0.62l3.89,1.27c0,0,0.15,0.02,0.2-0.01c0.89-0.56,8.91-5.63,9.37-5.8
	c0.07-0.02,0.13,0,0.11,0.05c-0.19,0.65-7.15,6.84-7.15,6.84s-0.03,0.03-0.04,0.07l-0.01-0.01l-0.36,3.86c0,0-0.15,1.18,1.03,0
	c0.83-0.83,1.64-1.53,2.05-1.87c1.34,0.92,2.78,1.95,3.4,2.48c0.31,0.27,0.57,0.31,0.79,0.3c0.59-0.02,0.75-0.67,0.75-0.67
	s2.75-11.07,2.84-12.56c0.01-0.15,0.02-0.24,0.02-0.34C413.44,308.35,413.42,308.21,413.4,308.15z"/>
</svg>
