<?xml version="1.0" encoding="utf-8"?>
<!-- Generator: Adobe Illustrator 26.1.0, SVG Export Plug-In . SVG Version: 6.00 Build 0)  -->
<svg version="1.1" id="Layer_1" xmlns="http://www.w3.org/2000/svg" xmlns:xlink="http://www.w3.org/1999/xlink" x="0px" y="0px"
	 viewBox="0 0 18 18" style="enable-background:new 0 0 18 18;" xml:space="preserve">
<style type="text/css">
	.st0{fill-rule:evenodd;clip-rule:evenodd;fill:#12344B;}
</style>
<g>
	<path class="st0" d="M8.33,11.08c-0.22,0.01-0.45,0-0.67,0c-0.24,0-0.26,0.03-0.26,0.26c0,1.05,0,2.1,0,3.15c0,0.1,0,0.21,0,0.32
		c0,0.15-0.26,0.4-0.42,0.38c-0.22-0.02-0.13-0.21-0.14-0.33c-0.02-0.12,0-0.25,0-0.37c0-1.06,0-2.12,0-3.18
		c0-0.17-0.06-0.23-0.23-0.23c-0.22,0.01-0.43,0-0.65,0c-0.24,0-0.26,0.02-0.26,0.26c0,1.31,0,2.61,0,3.92c0,0.08,0,0.15,0.01,0.23
		c0.06,0.73,0.58,1.03,1.24,0.7c0.15-0.07,0.29-0.18,0.45-0.28C7.39,15.94,7.4,15.97,7.4,16c0.01,0.23,0.02,0.25,0.26,0.25
		c0.23,0,0.46,0,0.69,0c0.14,0,0.2-0.06,0.2-0.2c0-1.59,0-3.18,0-4.77C8.55,11.13,8.47,11.07,8.33,11.08z M5.93,10.34
		c0-0.28,0-0.55,0-0.83c0-0.14-0.06-0.19-0.19-0.19c-1,0-2.01,0-3.01,0c-0.14,0-0.2,0.06-0.2,0.2c0,0.25,0,0.5,0,0.76
		c0,0.21,0.02,0.24,0.23,0.24c0.27,0,0.55,0,0.84,0c0,0.1,0,0.18,0,0.26c0,1.73,0,3.46,0,5.19c0,0.27,0.01,0.28,0.27,0.28
		c0.23,0,0.47,0,0.7,0c0.26,0,0.28-0.02,0.28-0.28c0-1.75,0-3.49,0-5.24c0-0.07,0-0.14,0-0.21c0.31,0,0.6,0,0.89,0
		C5.87,10.52,5.93,10.47,5.93,10.34z M9.11,6.04c0.28,0.03,0.46-0.15,0.46-0.48c0.01-0.42,0-0.84,0-1.27c0-0.43,0-0.87,0-1.3
		c0-0.23-0.09-0.35-0.26-0.41C9.01,2.48,8.77,2.66,8.77,3c0,0.85,0,1.7,0,2.55c0,0.07,0.01,0.14,0.03,0.21
		C8.83,5.93,8.94,6.02,9.11,6.04z M11.98,11.71c-0.21-0.68-0.91-0.9-1.49-0.49c-0.03,0.02-0.07,0.04-0.13,0.07c0-0.6,0-1.18,0-1.75
		c0-0.17-0.06-0.23-0.23-0.23c-0.22,0.01-0.44,0-0.67,0c-0.23,0-0.25,0.02-0.25,0.25c0,1.06,0,2.11,0,3.17c0,1.09,0,2.18,0,3.27
		c0,0.21,0.02,0.24,0.24,0.24c0.23,0,0.46,0,0.69,0c0.13,0,0.22-0.03,0.22-0.2c0.07,0.04,0.11,0.07,0.16,0.1
		c0.43,0.26,1.01,0.2,1.29-0.14c0.2-0.24,0.26-0.53,0.26-0.84c0-0.95,0.01-1.9,0-2.85C12.07,12.11,12.04,11.91,11.98,11.71z
		 M10.91,15c0,0.24-0.06,0.31-0.22,0.31c-0.2,0-0.32-0.12-0.32-0.32c0-0.44,0-0.88,0-1.32c0-0.45,0-0.9,0-1.35
		c0-0.16,0.09-0.26,0.25-0.28c0.16-0.02,0.24,0.07,0.28,0.21c0.01,0.05,0.02,0.1,0.02,0.16C10.91,13.26,10.91,14.13,10.91,15z
		 M13.92,13.89c0.45,0,0.89,0,1.34,0c0.16,0,0.23-0.05,0.23-0.21c-0.01-0.49,0-0.98-0.03-1.46c-0.03-0.44-0.2-0.83-0.6-1.06
		c-0.9-0.51-2.24-0.07-2.28,1.24c-0.03,0.85-0.01,1.71,0,2.57c0.01,0.38,0.14,0.74,0.42,1.01c0.4,0.4,0.9,0.44,1.42,0.34
		c0.48-0.09,0.82-0.38,0.94-0.85c0.09-0.35,0.09-0.72,0.12-1.08c0.01-0.12-0.09-0.15-0.19-0.15c-0.26,0-0.52,0-0.77,0
		c-0.14,0-0.2,0.06-0.2,0.2c0,0.2-0.01,0.4-0.03,0.6c-0.02,0.19-0.19,0.29-0.37,0.22c-0.14-0.05-0.17-0.18-0.17-0.3
		c-0.01-0.35,0-0.7,0-1.08C13.8,13.89,13.86,13.89,13.92,13.89z M13.72,12.89c0.01-0.22,0.01-0.43,0.03-0.63
		c0.02-0.14,0.12-0.2,0.26-0.21c0.14,0,0.25,0.05,0.27,0.19c0.03,0.21,0.03,0.42,0.05,0.65C14.11,12.89,13.94,12.89,13.72,12.89z
		 M11.3,1.84c0.24,0,0.47,0,0.7,0c0.06,0,0.11,0,0.2,0c0,0.1,0,0.17,0,0.25c0,1.11,0,2.23,0,3.34c0,0.06-0.01,0.12,0,0.17
		c0.03,0.11,0.06,0.28,0.13,0.31c0.09,0.04,0.25,0,0.35-0.06C12.9,5.74,13.01,5.58,13,5.3c-0.02-1.08-0.01-2.16-0.01-3.24
		c0-0.07,0-0.14,0-0.22c0.31,0,0.6,0,0.9,0c0,1.64,0,3.27,0,4.91c-0.29,0-0.58,0-0.89,0c0-0.16,0-0.32,0-0.54
		c-0.09,0.09-0.15,0.14-0.2,0.2c-0.22,0.21-0.46,0.36-0.76,0.41c-0.34,0.06-0.61-0.11-0.69-0.44c-0.04-0.15-0.05-0.3-0.05-0.45
		c0-1.31,0-2.62,0-3.92C11.29,1.96,11.3,1.92,11.3,1.84z M8.74,1.78c0.57-0.14,1.1-0.07,1.5,0.41c0.16,0.19,0.25,0.42,0.25,0.66
		c0,0.96,0.01,1.91,0,2.87c-0.01,0.65-0.51,1.12-1.16,1.16C8.83,6.91,8.4,6.8,8.09,6.38C7.94,6.18,7.86,5.95,7.86,5.7
		c-0.01-0.48,0-0.96,0-1.44c0,0,0,0,0,0c0-0.47-0.01-0.94,0-1.41C7.87,2.31,8.21,1.91,8.74,1.78z M5.4,0.09
		c0.03,0,0.07,0.09,0.09,0.15c0.2,0.78,0.4,1.57,0.59,2.35C6.09,2.65,6.11,2.7,6.13,2.75c0.02,0,0.04,0,0.06,0
		c0.04-0.15,0.08-0.3,0.11-0.45c0.17-0.69,0.33-1.38,0.49-2.07c0.03-0.12,0.07-0.17,0.2-0.16c0.28,0.01,0.56,0,0.87,0
		C7.83,0.17,7.82,0.24,7.8,0.31C7.44,1.48,7.08,2.64,6.73,3.8C6.69,3.92,6.68,4.04,6.68,4.17c-0.01,0.79,0,1.58,0,2.37
		c0,0.07,0,0.14,0,0.22c-0.35,0-0.67,0-1.02,0c0-0.06-0.01-0.13-0.01-0.2c0-0.75,0-1.5,0-2.25c0-0.13-0.02-0.27-0.06-0.4
		C5.22,2.7,4.85,1.49,4.48,0.28c-0.02-0.06-0.03-0.11-0.05-0.2C4.76,0.08,5.08,0.08,5.4,0.09z M16.57,14.56
		c-0.03,0.57-0.03,1.14-0.15,1.7c-0.19,0.92-1.05,1.58-2,1.61C11.5,17.98,8.58,18,5.65,17.93c-0.69-0.02-1.38-0.04-2.08-0.07
		c-1.01-0.04-1.92-0.94-1.99-1.95c-0.1-1.39-0.14-2.79-0.09-4.18c0.02-0.69,0.04-1.39,0.13-2.07c0.12-0.94,0.97-1.71,1.91-1.75
		C4.94,7.85,6.35,7.83,7.76,7.8c0.43-0.01,0.86,0,1.28,0c0-0.01,0-0.02,0-0.03c1.74,0.04,3.47,0.07,5.21,0.11
		c0.94,0.02,1.65,0.43,2.07,1.29c0.2,0.4,0.18,0.84,0.21,1.27C16.62,11.81,16.64,13.19,16.57,14.56z"/>
</g>
</svg>
