<svg xmlns="http://www.w3.org/2000/svg" width="248.96" height="64.56" viewBox="0 0 248.96 64.56">
	<style type="text/css">
		.st2{stroke:#725c58;fill:#565658;stroke-width:0.5;}
		.st1{fill:#565658;}
		.st0{fill:#0093d5;}
	</style>
	<path class="st0" d="M2.53,41.46C23.19,53.01 36.92,32.35 36.92,32.35L28.66,32.35L31.33,22.26L54.58,22.26L48.95,47.9L38.99,47.9L39.72,41.7C39.72,41.7 19.79,59.57 2.53,41.46"/>
	<path class="st0" d="M56.69,12.23C56.69,15.9 53.71,18.87 50.05,18.87C46.38,18.87 43.4,15.9 43.4,12.23C43.4,8.56 46.38,5.59 50.05,5.59C53.71,5.59 56.69,8.56 56.69,12.23"/>
	<path class="st0" d="M47.51,2.61C45.71,1.91 40.78,0.63 38.26,0.39C22.58,-1.66 14.44,5.01 14.44,5.01C14.44,5.01 -6.69,18.13 2.17,39.27C2.71,40.62 7.26,42.44 12.44,42.55C6.45,34.88 6.29,0.67 47.51,2.61"/>
	<path class="st1" d="M92.39,9.73L91.15,16.75L89.88,16.75L90.94,10.74L87.67,10.74L86.61,16.75L85.35,16.75L86.59,9.73Z"/>
	<path class="st1" d="M94.99,13.89C94.96,14.08 94.96,14.25 94.96,14.41C95.04,15.3 95.7,15.91 96.61,15.91C97.96,15.91 98.94,14.81 99.22,13.2C99.47,11.79 98.94,10.58 97.59,10.58C96.72,10.58 95.8,11.21 95.39,12.16C95.31,12.32 95.24,12.51 95.21,12.69ZM94.06,12.02C94.22,11.12 94.32,10.39 94.41,9.73L95.55,9.73L95.4,10.93L95.43,10.93C96.1,10.07 97.02,9.57 98.16,9.57C99.86,9.57 100.89,11 100.51,13.14C100.06,15.66 98.31,16.91 96.65,16.91C95.72,16.91 94.98,16.5 94.68,15.81L94.66,15.81L93.98,19.63L92.72,19.63Z"/>
	<path class="st1" d="M105.81,13.17C104.43,13.14 102.8,13.38 102.56,14.75C102.41,15.58 102.9,15.97 103.55,15.97C104.46,15.97 105.15,15.39 105.46,14.79C105.52,14.66 105.58,14.52 105.6,14.39ZM105.37,16.75L105.42,15.87L105.38,15.87C104.89,16.42 104.05,16.91 103.05,16.91C101.63,16.91 101.08,15.91 101.26,14.89C101.56,13.2 103.23,12.27 105.94,12.28L105.97,12.14C106.07,11.56 106.09,10.51 104.66,10.51C104,10.51 103.29,10.71 102.74,11.03L102.59,10.19C103.24,9.81 104.13,9.57 105.01,9.57C107.16,9.57 107.42,11.03 107.18,12.44L106.71,15.07C106.6,15.68 106.53,16.27 106.53,16.75Z"/>
	<path class="st1" d="M110.98,9.73L110.44,12.77L110.74,12.77L113.92,9.73L115.47,9.73L111.85,12.9C112.96,13.02 113.51,13.78 113.84,15.04C113.95,15.5 114.07,16.19 114.29,16.75L112.96,16.75C112.82,16.45 112.67,15.89 112.56,15.31C112.28,14.18 111.72,13.66 110.53,13.66L110.28,13.66L109.74,16.75L108.47,16.75L109.71,9.73Z"/>
	<path class="st1" d="M121.65,9.73L121.48,10.74L119.28,10.74L118.22,16.75L116.96,16.75L118.02,10.74L115.83,10.74L116.01,9.73Z"/>
	<path class="st1" d="M123.95,9.73L123.42,12.69C123.23,13.8 123.09,14.5 122.86,15.5L122.9,15.52C123.47,14.66 123.8,14.17 124.41,13.35L127.24,9.73L128.73,9.73L127.5,16.75L126.28,16.75L126.8,13.78C127,12.63 127.14,12.03 127.4,10.9L127.35,10.9C126.74,11.8 126.34,12.37 125.81,13.08C124.95,14.17 123.94,15.52 122.97,16.75L121.5,16.75L122.74,9.73Z"/>
	<path class="st1" d="M132.07,9.73L131.53,12.77L131.84,12.77L135.02,9.73L136.57,9.73L132.95,12.9C134.06,13.02 134.61,13.78 134.94,15.04C135.04,15.5 135.17,16.19 135.39,16.75L134.05,16.75C133.92,16.45 133.77,15.89 133.65,15.31C133.37,14.18 132.81,13.66 131.62,13.66L131.38,13.66L130.83,16.75L129.57,16.75L130.81,9.73Z"/>
	<path class="st1" d="M141,13.17C139.61,13.14 137.98,13.38 137.74,14.75C137.6,15.58 138.08,15.97 138.73,15.97C139.65,15.97 140.33,15.39 140.64,14.79C140.7,14.66 140.76,14.52 140.78,14.39ZM140.55,16.75L140.61,15.87L140.56,15.87C140.07,16.42 139.23,16.91 138.23,16.91C136.81,16.91 136.26,15.91 136.44,14.89C136.74,13.2 138.41,12.27 141.12,12.28L141.15,12.14C141.25,11.56 141.28,10.51 139.84,10.51C139.19,10.51 138.47,10.71 137.92,11.03L137.78,10.19C138.43,9.81 139.31,9.57 140.19,9.57C142.34,9.57 142.61,11.03 142.36,12.44L141.89,15.07C141.79,15.68 141.71,16.27 141.71,16.75Z"/>
	<path class="st1" d="M155.3,9.73L154.78,12.69C154.58,13.8 154.44,14.5 154.21,15.5L154.25,15.52C154.82,14.66 155.15,14.17 155.76,13.35L158.59,9.73L160.09,9.73L158.85,16.75L157.63,16.75L158.15,13.78C158.36,12.63 158.49,12.03 158.75,10.9L158.7,10.9C158.1,11.8 157.69,12.37 157.16,13.08C156.3,14.17 155.29,15.52 154.32,16.75L152.86,16.75L154.09,9.73Z"/>
	<path class="st1" d="M163.67,11.86C163.51,12.79 163.22,13.69 162.85,14.47C162.62,14.95 162.34,15.39 162.05,15.78L165.29,15.78L166.18,10.7L163.88,10.7ZM167.6,9.73L166.53,15.79L167.26,15.81L166.62,18.99L165.62,18.99L165.96,16.75L161.1,16.75L160.65,18.99L159.64,18.99L160.15,15.81L160.74,15.79C161.13,15.34 161.44,14.86 161.69,14.36C162.12,13.49 162.42,12.54 162.59,11.55L162.92,9.73Z"/>
	<path class="st1" d="M173.75,12.56C173.91,11.74 173.78,10.48 172.35,10.48C171.05,10.48 170.28,11.67 170.02,12.56ZM169.84,13.47C169.57,15.2 170.55,15.91 171.82,15.91C172.74,15.91 173.32,15.75 173.83,15.55L173.89,16.46C173.4,16.66 172.59,16.9 171.48,16.9C169.31,16.9 168.27,15.47 168.65,13.35C169.02,11.24 170.56,9.57 172.61,9.57C174.9,9.57 175.15,11.58 174.93,12.88C174.88,13.14 174.82,13.34 174.78,13.47Z"/>
	<path class="st1" d="M178.24,9.73L177.72,12.69C177.52,13.8 177.38,14.5 177.15,15.5L177.19,15.52C177.76,14.66 178.09,14.17 178.7,13.35L181.53,9.73L183.03,9.73L181.79,16.75L180.57,16.75L181.09,13.78C181.3,12.63 181.43,12.03 181.69,10.9L181.64,10.9C181.04,11.8 180.63,12.37 180.1,13.08C179.24,14.17 178.23,15.52 177.26,16.75L175.79,16.75L177.03,9.73Z"/>
	<path class="st0" d="M194.86,13.89C194.82,14.08 194.82,14.25 194.82,14.41C194.9,15.3 195.56,15.91 196.47,15.91C197.82,15.91 198.8,14.81 199.09,13.2C199.33,11.79 198.81,10.58 197.46,10.58C196.59,10.58 195.66,11.21 195.25,12.16C195.18,12.32 195.1,12.51 195.07,12.69ZM193.92,12.02C194.08,11.12 194.18,10.39 194.27,9.73L195.42,9.73L195.26,10.93L195.29,10.93C195.96,10.07 196.88,9.57 198.03,9.57C199.73,9.57 200.75,11 200.37,13.14C199.93,15.66 198.17,16.91 196.51,16.91C195.59,16.91 194.85,16.5 194.55,15.81L194.52,15.81L193.85,19.63L192.58,19.63Z"/>
	<path class="st0" d="M206.54,12.56C206.7,11.74 206.57,10.48 205.14,10.48C203.84,10.48 203.07,11.67 202.81,12.56ZM202.63,13.47C202.36,15.2 203.34,15.91 204.61,15.91C205.53,15.91 206.11,15.75 206.62,15.55L206.68,16.46C206.19,16.66 205.38,16.9 204.27,16.9C202.1,16.9 201.06,15.47 201.44,13.35C201.81,11.24 203.35,9.57 205.4,9.57C207.69,9.57 207.94,11.58 207.72,12.88C207.67,13.14 207.61,13.34 207.57,13.47Z"/>
	<path class="st0" d="M211.07,9.73L210.01,15.75L212.46,15.75L213.52,9.73L214.77,9.73L213.71,15.75L216.16,15.75L217.22,9.73L218.49,9.73L217.25,16.75L208.58,16.75L209.82,9.73Z"/>
	<path class="st0" d="M224.52,12.56C224.67,11.74 224.55,10.48 223.11,10.48C221.82,10.48 221.04,11.67 220.79,12.56ZM220.61,13.47C220.34,15.2 221.31,15.91 222.59,15.91C223.5,15.91 224.08,15.75 224.6,15.55L224.66,16.46C224.17,16.66 223.36,16.9 222.24,16.9C220.08,16.9 219.04,15.47 219.41,13.35C219.79,11.24 221.33,9.57 223.37,9.57C225.67,9.57 225.92,11.58 225.69,12.88C225.65,13.14 225.58,13.34 225.54,13.47Z"/>
	<path class="st0" d="M229.06,9.73L228.56,12.56L231.9,12.56L232.4,9.73L233.66,9.73L232.42,16.75L231.16,16.75L231.72,13.57L228.38,13.57L227.82,16.75L226.56,16.75L227.8,9.73Z"/>
	<path class="st0" d="M236.93,9.73L236.4,12.69C236.21,13.8 236.07,14.5 235.83,15.5L235.88,15.52C236.45,14.66 236.78,14.17 237.39,13.35L240.22,9.73L241.71,9.73L240.48,16.75L239.26,16.75L239.78,13.78C239.98,12.63 240.12,12.03 240.38,10.9L240.33,10.9C239.72,11.8 239.32,12.37 238.79,13.08C237.93,14.17 236.92,15.52 235.95,16.75L234.48,16.75L235.72,9.73Z"/>
	<path class="st0" d="M247.56,10.57C247.25,10.53 246.96,10.5 246.51,10.5C245.64,10.5 244.57,10.74 244.4,11.71C244.24,12.61 245.3,12.93 246.05,12.93L247.14,12.93ZM247.73,16.75L246.47,16.75L246.99,13.81L246.04,13.81C245.51,13.81 245.12,13.95 244.8,14.2C244.2,14.62 243.86,15.49 243.46,16.17C243.34,16.39 243.2,16.58 243.07,16.75L241.71,16.75C241.91,16.52 242.1,16.26 242.28,15.95C242.71,15.27 243.04,14.36 243.76,13.83C244.01,13.65 244.3,13.49 244.63,13.43L244.64,13.38C243.74,13.28 242.9,12.72 243.09,11.64C243.22,10.92 243.7,10.42 244.29,10.12C244.92,9.78 245.81,9.64 246.72,9.64C247.56,9.64 248.36,9.71 248.96,9.78Z"/>
	<path class="st1" d="M38.63,57.38L38.93,60.95C39,61.73 39.06,62.46 39.06,63.19L39.1,63.19C39.39,62.47 39.76,61.72 40.12,60.96L41.9,57.38L42.97,57.38L43.44,60.89C43.55,61.73 43.63,62.47 43.66,63.19L43.71,63.19C43.95,62.47 44.27,61.73 44.64,60.91L46.27,57.38L47.53,57.38L44.03,64.4L42.87,64.4L42.38,61.05C42.28,60.27 42.19,59.57 42.17,58.74L42.14,58.74C41.81,59.59 41.47,60.31 41.09,61.07L39.37,64.4L38.21,64.4L37.33,57.38Z"/>
	<path class="st1" d="M49.49,57.38L49.79,60.95C49.85,61.73 49.91,62.46 49.91,63.19L49.96,63.19C50.24,62.47 50.61,61.72 50.97,60.96L52.75,57.38L53.83,57.38L54.29,60.89C54.41,61.73 54.48,62.47 54.51,63.19L54.56,63.19C54.8,62.47 55.12,61.73 55.5,60.91L57.12,57.38L58.38,57.38L54.88,64.4L53.72,64.4L53.24,61.05C53.13,60.27 53.05,59.57 53.02,58.74L52.99,58.74C52.67,59.59 52.32,60.31 51.94,61.07L50.22,64.4L49.06,64.4L48.18,57.38Z"/>
	<path class="st1" d="M60.34,57.38L60.64,60.95C60.7,61.73 60.76,62.46 60.77,63.19L60.81,63.19C61.1,62.47 61.46,61.72 61.83,60.96L63.61,57.38L64.68,57.38L65.15,60.89C65.26,61.73 65.33,62.47 65.37,63.19L65.41,63.19C65.65,62.47 65.97,61.73 66.35,60.91L67.97,57.38L69.24,57.38L65.73,64.4L64.57,64.4L64.09,61.05C63.98,60.27 63.9,59.57 63.87,58.74L63.84,58.74C63.52,59.59 63.17,60.31 62.8,61.07L61.08,64.4L59.91,64.4L59.03,57.38Z"/>
	<path class="st1" d="M68.53,63.65C68.63,63.11 69.06,62.73 69.57,62.73C70.07,62.73 70.36,63.11 70.26,63.65C70.17,64.17 69.77,64.56 69.23,64.56C68.72,64.56 68.44,64.17 68.53,63.65"/>
	<path class="st1" d="M74.72,55.4C74.66,55.84 74.28,56.19 73.77,56.19C73.32,56.19 73.06,55.84 73.14,55.4C73.22,54.95 73.61,54.61 74.08,54.61C74.55,54.61 74.8,54.95 74.72,55.4M71.71,64.4L72.95,57.38L74.22,57.38L72.99,64.4Z"/>
	<path class="st1" d="M76.01,59.28C76.14,58.55 76.23,57.96 76.28,57.38L77.42,57.38L77.28,58.54L77.31,58.54C77.78,57.87 78.71,57.22 79.87,57.22C80.84,57.22 82.25,57.8 81.82,60.21L81.08,64.4L79.81,64.4L80.52,60.35C80.72,59.22 80.46,58.28 79.26,58.28C78.42,58.28 77.66,58.87 77.32,59.59C77.23,59.74 77.16,59.96 77.13,60.18L76.38,64.4L75.1,64.4Z"/>
	<path class="st1" d="M86.23,55.36L85.88,57.38L87.7,57.38L87.53,58.35L85.7,58.35L85.04,62.14C84.88,63.01 85.04,63.5 85.75,63.5C86.09,63.5 86.34,63.46 86.51,63.42L86.4,64.38C86.13,64.48 85.73,64.55 85.24,64.55C84.64,64.55 84.19,64.36 83.95,64.01C83.66,63.63 83.63,63.01 83.78,62.18L84.46,58.35L83.37,58.35L83.54,57.38L84.63,57.38L84.92,55.69Z"/>
	<path class="st1" d="M93.01,60.21C93.17,59.4 93.04,58.13 91.6,58.13C90.31,58.13 89.54,59.32 89.28,60.21ZM89.1,61.12C88.83,62.85 89.81,63.56 91.08,63.56C92,63.56 92.58,63.4 93.09,63.2L93.15,64.11C92.66,64.32 91.85,64.55 90.73,64.55C88.57,64.55 87.53,63.13 87.9,61.01C88.28,58.89 89.82,57.22 91.87,57.22C94.16,57.22 94.41,59.24 94.19,60.53C94.14,60.79 94.07,60.99 94.04,61.12Z"/>
	<path class="st1" d="M95.94,59.57C96.08,58.74 96.19,58.03 96.26,57.38L97.38,57.38L97.18,58.76L97.24,58.76C97.73,57.81 98.6,57.22 99.46,57.22C99.6,57.22 99.7,57.23 99.81,57.26L99.6,58.47C99.47,58.44 99.35,58.42 99.17,58.42C98.27,58.42 97.51,59.11 97.17,60.06C97.11,60.24 97.04,60.44 97.01,60.66L96.35,64.4L95.08,64.4Z"/>
	<path class="st1" d="M100.39,64.4L101.46,58.35L100.47,58.35L100.65,57.38L101.63,57.38L101.69,57.04C101.87,56.06 102.24,55.16 102.94,54.59C103.5,54.13 104.17,53.94 104.76,53.94C105.21,53.94 105.59,54.04 105.82,54.14L105.47,55.13C105.29,55.04 105.05,54.97 104.68,54.97C103.6,54.97 103.15,55.93 102.96,57L102.89,57.38L104.59,57.38L104.42,58.35L102.72,58.35L101.66,64.4Z"/>
	<path class="st1" d="M105.71,60.91C105.44,62.44 106.12,63.61 107.37,63.61C108.59,63.61 109.7,62.46 109.98,60.88C110.19,59.69 109.86,58.18 108.35,58.18C106.85,58.18 105.95,59.57 105.71,60.91M111.3,60.83C110.84,63.43 108.84,64.56 107.14,64.56C105.24,64.56 104.02,63.17 104.41,60.95C104.83,58.6 106.61,57.22 108.55,57.22C110.57,57.22 111.68,58.68 111.3,60.83"/>
	<path class="st1" d="M113.13,59.57C113.28,58.74 113.39,58.03 113.46,57.38L114.57,57.38L114.37,58.76L114.43,58.76C114.92,57.81 115.79,57.22 116.65,57.22C116.79,57.22 116.89,57.23 117,57.26L116.79,58.47C116.67,58.44 116.54,58.42 116.36,58.42C115.46,58.42 114.7,59.11 114.36,60.06C114.3,60.24 114.24,60.44 114.2,60.66L113.54,64.4L112.28,64.4Z"/>
	<path class="st1" d="M123.24,62.49C123.11,63.21 123.01,63.85 122.96,64.4L121.82,64.4L121.95,63.26L121.92,63.26C121.49,63.82 120.62,64.56 119.37,64.56C118.27,64.56 117.06,63.95 117.49,61.49L118.22,57.38L119.49,57.38L118.81,61.27C118.57,62.6 118.82,63.5 119.98,63.5C120.84,63.5 121.54,62.91 121.87,62.34C121.97,62.15 122.06,61.92 122.1,61.69L122.86,57.38L124.14,57.38Z"/>
	<path class="st1" d="M125.92,59.28C126.05,58.55 126.14,57.96 126.19,57.38L127.31,57.38L127.17,58.51L127.21,58.51C127.72,57.84 128.49,57.22 129.65,57.22C130.61,57.22 131.23,57.8 131.39,58.63L131.42,58.63C131.7,58.23 132.03,57.93 132.36,57.71C132.84,57.39 133.33,57.22 134,57.22C134.93,57.22 136.2,57.83 135.77,60.27L135.04,64.4L133.79,64.4L134.5,60.43C134.73,59.08 134.38,58.26 133.35,58.26C132.63,58.26 131.97,58.8 131.64,59.43C131.55,59.6 131.47,59.83 131.43,60.06L130.66,64.4L129.41,64.4L130.15,60.19C130.35,59.08 130,58.26 129.03,58.26C128.23,58.26 127.54,58.9 127.22,59.54C127.12,59.73 127.05,59.95 127.01,60.17L126.26,64.4L125.02,64.4Z"/>
	<path class="st1" d="M137.17,63.1C137.51,63.34 138.13,63.61 138.77,63.61C139.69,63.61 140.21,63.14 140.31,62.56C140.42,61.95 140.12,61.62 139.24,61.27C138.05,60.82 137.58,60.12 137.73,59.28C137.93,58.15 139.01,57.22 140.52,57.22C141.23,57.22 141.81,57.42 142.17,57.65L141.68,58.58C141.44,58.41 140.97,58.18 140.32,58.18C139.56,58.18 139.07,58.61 138.97,59.13C138.87,59.72 139.25,59.98 140.1,60.33C141.24,60.79 141.75,61.4 141.57,62.44C141.35,63.68 140.24,64.55 138.57,64.55C137.8,64.55 137.12,64.36 136.68,64.07Z"/>
	<path class="st1" d="M142.53,63.65C142.62,63.11 143.05,62.73 143.56,62.73C144.07,62.73 144.35,63.11 144.26,63.65C144.16,64.17 143.76,64.56 143.22,64.56C142.72,64.56 142.44,64.17 142.53,63.65"/>
	<path class="st1" d="M146.56,59.57C146.7,58.74 146.81,58.03 146.89,57.38L148,57.38L147.8,58.76L147.86,58.76C148.35,57.81 149.22,57.22 150.08,57.22C150.22,57.22 150.32,57.23 150.43,57.26L150.22,58.47C150.09,58.44 149.97,58.42 149.79,58.42C148.89,58.42 148.13,59.11 147.79,60.06C147.73,60.24 147.67,60.44 147.63,60.66L146.97,64.4L145.71,64.4Z"/>
	<path class="st1" d="M156.66,62.49C156.54,63.21 156.44,63.85 156.38,64.4L155.25,64.4L155.38,63.26L155.35,63.26C154.92,63.82 154.05,64.56 152.8,64.56C151.7,64.56 150.48,63.95 150.92,61.49L151.64,57.38L152.92,57.38L152.24,61.27C152,62.6 152.25,63.5 153.41,63.5C154.26,63.5 154.97,62.91 155.3,62.34C155.4,62.15 155.49,61.92 155.53,61.69L156.29,57.38L157.56,57.38Z"/>
	<path class="st2" d="M148.82,8.03L146.86,19.14"/>
	<path class="st2" d="M188.89,8.03L186.94,19.14"/>
	<path class="st0" d="M83.82,28.77L77.57,28.77L78.45,24.34L96.04,24.34L95.2,28.77L88.88,28.77L85.26,48.02L80.2,48.02Z"/>
	<path class="st0" d="M109.78,37.97L101.35,37.97L100.26,43.7L109.71,43.7L108.9,48.02L94.39,48.02L98.89,24.34L112.9,24.34L112.06,28.67L103.14,28.67L102.16,33.72L110.59,33.72Z"/>
	<path class="st0" d="M120.07,34.88L122.18,34.88C124.92,34.88 126.92,33.23 126.92,30.91C126.92,29.02 125.31,28.17 123.3,28.17C122.36,28.17 121.76,28.24 121.34,28.35ZM117.02,24.8C118.6,24.42 120.98,24.17 123.34,24.17C125.59,24.17 127.9,24.52 129.56,25.54C131.1,26.45 132.19,27.96 132.19,30.17C132.19,33.69 129.84,35.86 126.81,36.85L126.81,36.99C128.22,37.59 128.82,39.17 129.06,41.31C129.34,43.94 129.56,47.03 129.98,48.02L124.78,48.02C124.57,47.39 124.32,45.35 124.08,42.43C123.87,39.55 122.88,38.68 120.88,38.68L119.33,38.68L117.58,48.02L112.56,48.02Z"/>
	<path class="st1" d="M137.53,24.34L151.4,24.34L150.56,28.67L141.78,28.67L140.69,34.21L148.94,34.21L148.1,38.5L139.88,38.5L138.09,48.02L133.03,48.02Z"/>
	<path class="st1" d="M159.94,29.96C158.04,31.83 156.99,35.51 156.99,38.36C156.99,41.69 158.5,44.19 161.94,44.19C163.42,44.19 164.82,43.52 165.91,42.47C167.77,40.61 168.79,36.71 168.79,33.97C168.79,31.02 167.74,28.17 164.01,28.17C162.43,28.17 161.03,28.84 159.94,29.96M174.16,33.83C174.16,38.15 172.65,42.33 169.95,45C167.74,47.14 164.75,48.4 161.2,48.4C155.06,48.4 151.62,44.05 151.62,38.53C151.62,34.25 153.2,30 155.97,27.33C158.18,25.22 161.2,23.96 164.61,23.96C170.86,23.96 174.16,28.17 174.16,33.83"/>
	<path class="st1" d="M182.88,34.88L184.98,34.88C187.72,34.88 189.73,33.23 189.73,30.91C189.73,29.02 188.11,28.17 186.11,28.17C185.16,28.17 184.56,28.24 184.14,28.35ZM179.82,24.8C181.4,24.42 183.79,24.17 186.14,24.17C188.39,24.17 190.71,24.52 192.36,25.54C193.91,26.45 194.99,27.96 194.99,30.17C194.99,33.69 192.64,35.86 189.62,36.85L189.62,36.99C191.03,37.59 191.62,39.17 191.87,41.31C192.15,43.94 192.36,47.03 192.78,48.02L187.58,48.02C187.37,47.39 187.13,45.35 186.88,42.43C186.67,39.55 185.69,38.68 183.68,38.68L182.14,38.68L180.38,48.02L175.36,48.02Z"/>
	<path class="st1" d="M205.01,24.34L202.41,37.97C202.23,38.78 202.16,39.73 202.16,40.78C202.16,42.68 203.32,44.15 205.6,44.15C208.24,44.15 209.99,42.4 210.84,38.01L213.44,24.34L218.49,24.34L215.93,37.8C214.56,44.96 211.4,48.4 204.97,48.4C200.09,48.4 197.1,45.91 197.1,40.85C197.1,39.83 197.24,38.67 197.46,37.55L199.95,24.34Z"/>
	<path class="st1" d="M238.34,48.02L239.78,38.25C240.17,35.69 240.69,32.42 241.36,29.02L241.26,29.02C239.96,32.07 238.48,35.34 237.18,37.94L232.34,47.63L228.4,47.63L227.56,38.04C227.35,35.44 227.17,32.18 227.03,29.02L226.96,29.02C226.29,32.14 225.59,35.69 224.99,38.25L222.64,48.02L218,48.02L223.94,24.34L230.72,24.34L231.46,33.34C231.6,35.55 231.84,38.25 231.88,40.89L232.02,40.89C232.93,38.25 234.2,35.48 235.22,33.34L239.61,24.34L246.45,24.34L243.26,48.02Z"/>
	<path class="st0" d="M71,24.34L69.38,32.95C68.72,36.43 68.4,39.03 68.29,41.45L68.19,41.45C67.63,38.85 66.99,36.39 66.05,33.37L62.92,24.34L57.02,24.34L56.3,27.95L52.49,48.02L57.2,48.02L58.74,39.73C59.44,36.01 60,32.63 60.29,30.35L60.39,30.32C61.02,33.23 61.66,35.37 62.71,38.57L66.01,48.02L71.24,48.02L75.7,24.34Z"/>
</svg>