<svg xmlns="http://www.w3.org/2000/svg" width="29.56" height="29.72" viewBox="0 0 29.56 29.72">
	<style type="text/css">
		.st0{fill:#069edb;}
	</style>
	<path class="st0" d="M16.35,29.72L5.98,29.72C4.04,29.72 2.46,28.14 2.46,26.2L2.46,13.28L1.94,13.74C1.45,14.16 0.71,14.11 0.28,13.62C-0.13,13.13 -0.08,12.39 0.4,11.96L13.91,0.23C14.27,-0.07 14.81,-0.07 15.18,0.23L23.48,7.45C22.83,7.32 22.16,7.25 21.47,7.25C20.99,7.25 20.52,7.28 20.06,7.34C19.91,7.36 19.76,7.32 19.65,7.22L14.89,3.09C14.69,2.92 14.4,2.92 14.2,3.09L4.81,11.25L4.81,26.2C4.81,26.85 5.33,27.37 5.98,27.37L15.3,27.37C15.47,27.37 15.64,27.45 15.75,27.58C16.11,27.97 16.46,28.34 16.79,28.67C17.18,29.06 16.9,29.72 16.35,29.72M27.22,17.9C27.22,20.89 23.57,24.78 21.47,26.65C20.83,26.08 19.86,25.15 18.89,24.04C16.81,21.66 15.72,19.54 15.72,17.9L15.72,17.69C15.72,14.52 18.3,11.94 21.47,11.94C24.64,11.94 27.22,14.52 27.22,17.69ZM21.47,9.6C17,9.6 13.37,13.22 13.37,17.69L13.37,17.9C13.37,20.14 14.63,22.73 17.12,25.58C18.9,27.62 20.66,29.05 20.73,29.11L21.47,29.7L22.2,29.11C22.28,29.05 24.03,27.62 25.81,25.58C28.3,22.73 29.56,20.14 29.56,17.9L29.56,17.69C29.56,13.22 25.93,9.6 21.47,9.6M21.47,18.98C20.82,18.98 20.29,18.45 20.29,17.8C20.29,17.16 20.82,16.63 21.47,16.63C22.11,16.63 22.64,17.16 22.64,17.8C22.64,18.45 22.11,18.98 21.47,18.98M21.47,14.28C19.53,14.28 17.95,15.86 17.95,17.8C17.95,19.75 19.53,21.32 21.47,21.32C23.41,21.32 24.99,19.75 24.99,17.8C24.99,15.86 23.41,14.28 21.47,14.28"/>
</svg>