<svg xmlns="http://www.w3.org/2000/svg" width="32.61" height="33.27" viewBox="0 0 32.61 33.27">
	<style type="text/css">
		.st0{fill:#069edb;}
	</style>
	<path class="st0" d="M16.3,0C7.31,0 0,7.31 0,16.3C0,19.82 1.42,22.98 2.04,24.18C2.32,24.73 3.01,24.95 3.56,24.67C4.12,24.38 4.34,23.7 4.05,23.14C3.51,22.09 2.26,19.33 2.26,16.3C2.26,8.56 8.56,2.26 16.3,2.26C24.04,2.26 30.34,8.56 30.34,16.3C30.34,24.04 24.04,30.34 16.3,30.34C13.27,30.34 10.87,29.29 9.97,28.84C9.71,28.71 9.4,28.69 9.12,28.78L1.98,31.06C1.39,31.25 1.06,31.88 1.25,32.48C1.4,32.96 1.85,33.27 2.33,33.27C2.44,33.27 2.56,33.25 2.67,33.22L9.38,31.07C10.78,31.72 13.25,32.61 16.3,32.61C25.29,32.61 32.61,25.29 32.61,16.3C32.61,7.31 25.29,0 16.3,0"/>
	<path class="st0" d="M13.09,13.52C12.59,13.9 12.5,14.61 12.88,15.11C13.26,15.61 13.97,15.7 14.47,15.32C14.81,15.05 15.74,14.34 15.6,13.08C15.52,12.32 14.78,11.29 14.18,10.55C13.3,9.48 12.56,8.84 11.97,8.66C11.42,8.49 10.86,8.52 10.3,8.74C9.14,9.2 8.33,9.97 7.94,10.95C7.57,11.91 7.64,12.98 8.14,14.05C9.32,16.55 10.9,18.71 12.84,20.46C12.85,20.47 12.85,20.48 12.86,20.48C14.82,22.22 17.14,23.55 19.76,24.45C20.26,24.63 20.75,24.71 21.21,24.71C21.8,24.71 22.36,24.58 22.87,24.31C23.8,23.82 24.47,22.92 24.8,21.72C24.96,21.14 24.93,20.58 24.7,20.06C24.45,19.49 23.74,18.82 22.57,18.06C21.78,17.55 20.67,16.93 19.91,16.93L19.91,16.93C18.64,16.94 18.03,17.93 17.81,18.31C17.48,18.84 17.65,19.54 18.19,19.86C18.72,20.19 19.42,20.02 19.75,19.48C19.83,19.33 19.89,19.25 19.93,19.21C20.57,19.4 22.28,20.52 22.63,20.99C22.64,21.02 22.64,21.05 22.62,21.12C22.51,21.53 22.27,22.06 21.81,22.31C21.37,22.53 20.86,22.44 20.5,22.31C18.17,21.51 16.11,20.33 14.37,18.8C14.37,18.8 14.37,18.8 14.37,18.79C12.65,17.24 11.25,15.32 10.19,13.09C10.03,12.74 9.87,12.24 10.05,11.78C10.24,11.29 10.75,11 11.14,10.85C11.2,10.82 11.24,10.82 11.27,10.82C11.78,11.12 13.08,12.7 13.33,13.31C13.3,13.35 13.22,13.42 13.09,13.52"/>
</svg>