<svg xmlns="http://www.w3.org/2000/svg" width="32.3" height="32.3" viewBox="0 0 32.3 32.3">
	<style type="text/css">
		.st0{fill:#069edb;}
	</style>
	<path class="st0" d="M16.08,30.42C8.26,30.42 1.87,23.98 1.87,16.08C1.87,8.26 8.26,1.87 16.08,1.87C23.98,1.87 30.42,8.26 30.42,16.08C30.42,23.98 23.98,30.42 16.08,30.42M16.08,0C7.19,0 0,7.19 0,16.08C0,24.91 7.13,32.3 16.08,32.3C24.96,32.3 32.3,24.98 32.3,16.08C32.3,7.12 24.9,0 16.08,0"/>
	<path class="st0" d="M16.08,18.93C14.52,18.93 13.24,17.65 13.24,16.08C13.24,14.52 14.52,13.23 16.08,13.23C17.69,13.23 19.05,14.54 19.05,16.08C19.05,17.62 17.69,18.93 16.08,18.93M16.08,5.67C10.34,5.67 5.67,10.34 5.67,16.08C5.67,21.84 10.33,26.62 16.08,26.62C18.41,26.62 20.76,25.84 22.54,24.47C22.95,24.16 23.03,23.56 22.71,23.15C22.4,22.73 21.8,22.65 21.39,22.97C19.93,24.09 18,24.74 16.08,24.74C11.39,24.74 7.57,20.85 7.57,16.08C7.57,11.39 11.39,7.55 16.08,7.55C20.85,7.55 24.73,11.39 24.73,16.08L24.73,17.03C24.73,18.07 23.88,18.92 22.83,18.92C21.79,18.92 20.94,18.07 20.94,17.03L20.94,12.3C20.94,11.77 20.52,11.35 19.99,11.35C19.47,11.35 19.05,11.77 19.05,12.3L19.05,12.36C18.19,11.71 17.16,11.35 16.08,11.35C13.47,11.35 11.35,13.47 11.35,16.08C11.35,18.69 13.47,20.81 16.08,20.81C17.5,20.81 18.8,20.21 19.72,19.19C20.41,20.17 21.55,20.81 22.83,20.81C24.92,20.81 26.62,19.12 26.62,17.03L26.62,16.08C26.62,10.33 21.84,5.67 16.08,5.67"/>
</svg>