<svg xmlns="http://www.w3.org/2000/svg" width="42.73" height="41.6" viewBox="0 0 42.73 41.6">
	<style type="text/css">
		.st0{fill:#f9f9f9;}
	</style>
	<path class="st0" d="M32.4 31.57L38.46 31.57L38.46 37.33L32.4 37.33ZM32.4,37.33M4.27 31.57L10.32 31.57L10.32 37.33L4.27 37.33ZM32.4 15.9L38.46 15.9L38.46 21.6L32.4 21.6ZM32.4,21.6M32.4 24.45L38.46 24.45L38.46 28.72L32.4 28.72ZM22.79 24.45L29.55 24.45L29.55 28.72L22.79 28.72ZM22.79,28.72M22.79 31.57L29.55 31.57L29.55 37.33L22.79 37.33ZM13.17 31.57L19.94 31.57L19.94 37.33L13.17 37.33ZM19.94,31.57M13.17 24.45L19.94 24.45L19.94 28.72L13.17 28.72ZM4.27 24.45L10.32 24.45L10.32 28.72L4.27 28.72ZM10.32,24.45M4.27 15.9L10.32 15.9L10.32 21.6L4.27 21.6ZM10.32,15.9M22.79 15.9L29.55 15.9L29.55 21.6L22.79 21.6ZM13.17 15.9L19.94 15.9L19.94 21.6L13.17 21.6ZM19.94,15.9M40.59,6.34L33.47,6.34L33.47,2.84C33.47,1.27 32.19,0 30.62,0C29.05,0 27.77,1.27 27.77,2.84L27.77,6.34L14.95,6.34L14.95,2.84C14.95,1.27 13.68,0 12.1,0C10.53,0 9.25,1.27 9.25,2.84L9.25,6.34L2.13,6.34C0.95,6.34 0,7.3 0,8.48L0,39.46C0,40.64 0.95,41.6 2.13,41.6L40.59,41.6C41.77,41.6 42.73,40.64 42.73,39.46L42.73,8.48C42.73,7.3 41.77,6.34 40.59,6.34"/>
</svg>