<svg xmlns="http://www.w3.org/2000/svg" width="34.78" height="42.15" viewBox="0 0 34.78 42.15">
	<style type="text/css">
		.st0{fill:#fcfcfc;fill-rule:evenodd;}
	</style>
	<path class="st0" d="M4.6,20.5L17.06,32.96C17.19,33.09 17.45,33.09 17.51,32.96L30.04,20.5C30.17,20.37 30.17,20.18 30.04,19.98L28.42,18.36L18.55,28.22L18.55,1.36C18.55,0.58 17.9,0 17.19,0C16.48,0 15.83,0.58 15.83,1.36L15.83,28.03L6.22,18.36L4.6,19.98C4.47,20.18 4.47,20.37 4.6,20.5"/>
	<path class="st0" d="M32.57,38.15L2.27,38.15C0.97,38.15 0,38.84 0,39.76L0,40.59C0,41.46 0.97,42.15 2.27,42.15L32.57,42.15C33.8,42.15 34.78,41.46 34.78,40.59L34.78,39.76C34.78,38.84 33.8,38.15 32.57,38.15"/>
</svg>