<svg xmlns="http://www.w3.org/2000/svg" width="39.3" height="43.01" viewBox="0 0 39.3 43.01">
	<style type="text/css">
		.st0{fill:#ffffff;}
	</style>
	<path class="st0" d="M38.73,18.25L32.18,11.7L32.18,2.62C32.18,2.31 31.92,2.05 31.61,2.05L27.57,2.05C27.25,2.05 27,2.31 27,2.62L27,6.53L21.03,0.56C20.27,-0.18 19.04,-0.18 18.29,0.56L0.57,18.27C-0.57,19.42 0.1,21.38 1.71,21.57L4.57,21.9L4.57,41.07C4.57,42.14 5.44,43.01 6.51,43.01L14.87,43.01L14.87,29.11C14.87,28.18 15.62,27.42 16.55,27.42L22.74,27.42C23.67,27.42 24.43,28.18 24.43,29.11L24.43,43.01L32.78,43.01C33.85,43.01 34.72,42.14 34.72,41.07L34.72,21.89L37.58,21.55C39.19,21.36 39.87,19.39 38.73,18.25"/>
</svg>