<svg xmlns="http://www.w3.org/2000/svg" width="56.66" height="79.16" viewBox="0 0 56.66 79.16">
	<style type="text/css">
		.st1{fill:#f30583;}
		.st0{fill:#069edb;}
	</style>
	<path class="st0" d="M17.51,67.05L40.77,67.05L40.77,51.22C40.77,51.01 40.87,50.81 41.05,50.69C46.7,46.77 50.07,40.33 50.07,33.47C50.07,21.93 40.68,12.54 29.14,12.54C17.6,12.54 8.21,21.93 8.21,33.47C8.21,40.34 11.58,46.77 17.23,50.69C17.41,50.81 17.51,51.01 17.51,51.22ZM41.42,68.35L16.86,68.35C16.5,68.35 16.21,68.06 16.21,67.7L16.21,51.56C10.38,47.38 6.91,40.65 6.91,33.47C6.91,21.22 16.88,11.24 29.14,11.24C41.4,11.24 51.37,21.22 51.37,33.47C51.37,40.65 47.9,47.38 42.07,51.56L42.07,67.7C42.07,68.06 41.78,68.35 41.42,68.35"/>
	<path class="st0" d="M44.58,59.15L13.7,59.15C13.34,59.15 13.05,58.86 13.05,58.5C13.05,58.14 13.34,57.85 13.7,57.85L44.58,57.85C44.94,57.85 45.23,58.14 45.23,58.5C45.23,58.86 44.94,59.15 44.58,59.15"/>
	<path class="st0" d="M44.58,63.27L13.7,63.27C13.34,63.27 13.05,62.98 13.05,62.62C13.05,62.26 13.34,61.97 13.7,61.97L44.58,61.97C44.94,61.97 45.23,62.26 45.23,62.62C45.23,62.98 44.94,63.27 44.58,63.27"/>
	<path class="st0" d="M21.79 68.35L36.49 68.35L36.49 74.31L21.79 74.31ZM37.14,75.61L21.14,75.61C20.78,75.61 20.49,75.32 20.49,74.96L20.49,67.7C20.49,67.34 20.78,67.05 21.14,67.05L37.14,67.05C37.5,67.05 37.79,67.34 37.79,67.7L37.79,74.96C37.79,75.32 37.5,75.61 37.14,75.61"/>
	<path class="st0" d="M27.22 75.61L31.05 75.61L31.05 77.86L27.22 77.86ZM31.7,79.16L26.57,79.16C26.21,79.16 25.92,78.87 25.92,78.51L25.92,74.96C25.92,74.6 26.21,74.31 26.57,74.31L31.7,74.31C32.06,74.31 32.35,74.6 32.35,74.96L32.35,78.51C32.35,78.87 32.06,79.16 31.7,79.16"/>
	<path class="st1" d="M27.99,8.28C27.63,8.28 27.34,7.99 27.34,7.63L27.34,0.65C27.34,0.29 27.63,0 27.99,0C28.35,0 28.64,0.29 28.64,0.65L28.64,7.63C28.64,7.99 28.35,8.28 27.99,8.28"/>
	<path class="st1" d="M36.35,9.08C36.3,9.08 36.24,9.07 36.19,9.05C35.84,8.96 35.63,8.6 35.73,8.26L37.53,1.52C37.63,1.17 37.99,0.97 38.33,1.06C38.68,1.15 38.88,1.51 38.79,1.85L36.98,8.59C36.9,8.88 36.64,9.08 36.35,9.08"/>
	<path class="st1" d="M44.23,12.01C44.12,12.01 44.01,11.99 43.91,11.93C43.59,11.75 43.49,11.35 43.67,11.04L47.15,4.99C47.33,4.68 47.73,4.58 48.04,4.76C48.35,4.94 48.46,5.33 48.28,5.64L44.79,11.69C44.67,11.9 44.45,12.01 44.23,12.01"/>
	<path class="st1" d="M51.08,16.89C50.91,16.89 50.74,16.82 50.62,16.7C50.36,16.44 50.36,16.03 50.62,15.78L55.55,10.85C55.81,10.59 56.22,10.59 56.47,10.85C56.73,11.1 56.72,11.51 56.47,11.77L51.54,16.7C51.41,16.82 51.24,16.89 51.08,16.89"/>
	<path class="st1" d="M5.58,18.51C5.41,18.51 5.25,18.45 5.12,18.32L0.19,13.38C-0.06,13.13 -0.06,12.72 0.19,12.46C0.44,12.21 0.85,12.21 1.1,12.46L6.04,17.4C6.29,17.66 6.29,18.07 6.04,18.32C5.91,18.45 5.75,18.51 5.58,18.51"/>
	<path class="st1" d="M12.06,13.17C11.84,13.17 11.62,13.05 11.5,12.84L8.01,6.79C7.83,6.48 7.93,6.08 8.24,5.9C8.56,5.72 8.95,5.83 9.13,6.14L12.62,12.19C12.8,12.5 12.7,12.9 12.39,13.08C12.28,13.14 12.17,13.17 12.06,13.17"/>
	<path class="st1" d="M19.7,9.67C19.41,9.67 19.15,9.48 19.07,9.19L17.27,2.45C17.18,2.1 17.38,1.75 17.73,1.65C18.07,1.56 18.43,1.77 18.52,2.11L20.33,8.85C20.42,9.2 20.22,9.56 19.87,9.65C19.81,9.66 19.76,9.67 19.7,9.67"/>
	<path class="st1" d="M28.61,57.85L29.66,57.85L36.76,39.5L33.39,39.94C33.13,39.98 32.89,39.86 32.75,39.64L29.02,33.59L25.36,39.66C25.23,39.88 24.97,40 24.71,39.97L21.51,39.52ZM30.11,59.15L28.17,59.15C27.9,59.15 27.66,58.99 27.56,58.74L19.9,38.95C19.82,38.74 19.86,38.49 20,38.31C20.14,38.13 20.37,38.05 20.6,38.07L24.47,38.62L28.45,32.01C28.57,31.81 28.78,31.7 29,31.69L29.01,31.69C29.23,31.69 29.44,31.81 29.56,32L33.64,38.6L37.68,38.07C37.91,38.04 38.13,38.14 38.28,38.32C38.42,38.5 38.46,38.74 38.37,38.95L30.72,58.74C30.62,58.99 30.38,59.15 30.11,59.15"/>
</svg>