<svg xmlns="http://www.w3.org/2000/svg" width="66.25" height="79.1" viewBox="0 0 66.25 79.1">
	<style type="text/css">
		.st2{fill:#fcfcfc;fill-rule:evenodd;}
		.st1{fill:#f30583;}
		.st0{fill:#069edb;}
	</style>
	<path class="st0" d="M1.3,70.43L40.04,70.43C39.43,68.87 39.13,67.23 39.13,65.54C39.13,58.06 45.21,51.98 52.69,51.98C54.18,51.98 55.63,52.21 57.01,52.69L57.01,19.96L38.35,1.29L1.3,1.29ZM41.05,71.73C41.04,71.73 41.03,71.73 41.03,71.73L0.65,71.73C0.29,71.73 0,71.44 0,71.08L0,0.64C0,0.29 0.29,0 0.65,0L38.62,0C38.79,0 38.95,0.06 39.08,0.19L58.12,19.23C58.24,19.36 58.31,19.52 58.31,19.69L58.31,53.63C58.31,53.85 58.2,54.05 58.02,54.17C57.84,54.29 57.61,54.31 57.41,54.23C55.92,53.6 54.33,53.28 52.69,53.28C45.93,53.28 40.43,58.78 40.43,65.54C40.43,67.33 40.81,69.06 41.55,70.67C41.64,70.79 41.7,70.93 41.7,71.08C41.7,71.44 41.41,71.73 41.05,71.73"/>
	<path class="st0" d="M39.75,19.53L56.58,19.53L39.75,2.7ZM58.17,20.83C58.16,20.83 58.16,20.83 58.15,20.83L39.1,20.83C38.74,20.83 38.45,20.54 38.45,20.18L38.45,1.13C38.45,0.87 38.61,0.63 38.85,0.53C39.1,0.43 39.38,0.48 39.56,0.67L58.52,19.63C58.7,19.75 58.82,19.95 58.82,20.18C58.82,20.54 58.53,20.83 58.17,20.83"/>
	<path class="st0" d="M29.32,9.66L9.44,9.66C9.08,9.66 8.79,9.37 8.79,9.01C8.79,8.65 9.08,8.36 9.44,8.36L29.32,8.36C29.68,8.36 29.97,8.65 29.97,9.01C29.97,9.37 29.68,9.66 29.32,9.66"/>
	<path class="st0" d="M34.96,18.07L9.44,18.07C9.08,18.07 8.79,17.78 8.79,17.42C8.79,17.06 9.08,16.77 9.44,16.77L34.96,16.77C35.31,16.77 35.61,17.06 35.61,17.42C35.61,17.78 35.31,18.07 34.96,18.07"/>
	<path class="st0" d="M46.7,44.38L9.44,44.38C9.08,44.38 8.79,44.09 8.79,43.73C8.79,43.37 9.08,43.08 9.44,43.08L46.7,43.08C47.06,43.08 47.35,43.37 47.35,43.73C47.35,44.09 47.06,44.38 46.7,44.38"/>
	<path class="st0" d="M46.7,36.31L9.44,36.31C9.08,36.31 8.79,36.02 8.79,35.66C8.79,35.3 9.08,35.01 9.44,35.01L46.7,35.01C47.06,35.01 47.35,35.3 47.35,35.66C47.35,36.02 47.06,36.31 46.7,36.31"/>
	<path class="st0" d="M46.7,27.9L9.44,27.9C9.08,27.9 8.79,27.61 8.79,27.25C8.79,26.89 9.08,26.6 9.44,26.6L46.7,26.6C47.06,26.6 47.35,26.89 47.35,27.25C47.35,27.61 47.06,27.9 46.7,27.9"/>
	<path class="st1" d="M52.69,79.1C45.21,79.1 39.13,73.02 39.13,65.54C39.13,58.06 45.21,51.98 52.69,51.98C60.16,51.98 66.25,58.06 66.25,65.54C66.25,73.02 60.16,79.1 52.69,79.1"/>
	<path class="st2" d="M46.83,64.56L52.71,70.45C52.78,70.51 52.9,70.51 52.93,70.45L58.85,64.56C58.91,64.5 58.91,64.41 58.85,64.32L58.08,63.55L53.42,68.21L53.42,55.51C53.42,55.15 53.11,54.87 52.78,54.87C52.44,54.87 52.13,55.15 52.13,55.51L52.13,68.12L47.59,63.55L46.83,64.32C46.77,64.41 46.77,64.5 46.83,64.56"/>
	<path class="st2" d="M60.04,72.9L45.72,72.9C45.11,72.9 44.65,73.23 44.65,73.66L44.65,74.05C44.65,74.47 45.11,74.79 45.72,74.79L60.04,74.79C60.63,74.79 61.08,74.47 61.08,74.05L61.08,73.66C61.08,73.23 60.63,72.9 60.04,72.9"/>
</svg>